<?xml version="1.0" encoding="UTF-8" standalone="no"?><!DOCTYPE svg PUBLIC "-//W3C//DTD SVG 1.1//EN" "http://www.w3.org/Graphics/SVG/1.1/DTD/svg11.dtd"><svg width="24px" height="24px" version="1.1" xmlns="http://www.w3.org/2000/svg" xmlns:xlink="http://www.w3.org/1999/xlink" xml:space="preserve" xmlns:serif="http://www.serif.com/" style="fill-rule:evenodd;clip-rule:evenodd;stroke-linejoin:round;stroke-miterlimit:1.41421;"><g><rect x="0" y="0" width="24" height="24" style="fill:none;"/><path d="M7.714,16.286l12,0l0,1.714l-12,0l0,-1.714Zm-3.428,0l1.714,0l0,1.714l-1.714,0l0,-1.714Zm4.285,-5.143l11.143,0l0,1.714l-11.143,0l0,-1.714Zm-0.857,-5.143l12,0l0,1.714l-12,0l0,-1.714Zm-3.428,0l1.714,0l0,1.714l-1.714,0l0,-1.714Zm0,4.286l2.571,1.714l-2.571,1.714l0,-3.428Z" style="fill:#222;fill-rule:nonzero;"/></g></svg>